<svg width="24" height="24" viewBox="0 0 24 24" fill="none" xmlns="http://www.w3.org/2000/svg">
<path fill-rule="evenodd" clip-rule="evenodd" d="M7 1.75C7.41421 1.75 7.75 2.08579 7.75 2.5V3.26272C8.41203 3.24999 9.1414 3.24999 9.94358 3.25H14.0564C14.8586 3.24999 15.588 3.24999 16.25 3.26272V2.5C16.25 2.08579 16.5858 1.75 17 1.75C17.4142 1.75 17.75 2.08579 17.75 2.5V3.32709C18.0099 3.34691 18.2561 3.37182 18.489 3.40314C19.6614 3.56076 20.6104 3.89288 21.3588 4.64124C22.1071 5.38961 22.4392 6.33856 22.5969 7.51098C22.75 8.65018 22.75 10.1058 22.75 11.9435V11.9436V14.0564V14.0565C22.75 15.8942 22.75 17.3498 22.5969 18.489C22.4392 19.6614 22.1071 20.6104 21.3588 21.3588C20.6104 22.1071 19.6614 22.4392 18.489 22.5969C17.3498 22.75 15.8942 22.75 14.0565 22.75H14.0564H9.94359H9.94354C8.1058 22.75 6.65018 22.75 5.51098 22.5969C4.33856 22.4392 3.38961 22.1071 2.64124 21.3588C1.89288 20.6104 1.56076 19.6614 1.40314 18.489C1.24997 17.3498 1.24998 15.8942 1.25 14.0564V14.0564V11.9436V11.9436C1.24998 10.1058 1.24997 8.65019 1.40314 7.51098C1.56076 6.33856 1.89288 5.38961 2.64124 4.64124C3.38961 3.89288 4.33856 3.56076 5.51098 3.40314C5.7439 3.37182 5.99006 3.34691 6.25 3.32709V2.5C6.25 2.08579 6.58579 1.75 7 1.75ZM5.71085 4.88976C4.70476 5.02502 4.12511 5.27869 3.7019 5.7019C3.27869 6.12511 3.02503 6.70476 2.88976 7.71085C2.86685 7.88123 2.8477 8.06061 2.83168 8.25H21.1683C21.1523 8.06061 21.1331 7.88124 21.1102 7.71085C20.975 6.70476 20.7213 6.12511 20.2981 5.7019C19.8749 5.27869 19.2952 5.02502 18.2892 4.88976C17.2615 4.75159 15.9068 4.75 14 4.75H10C8.09318 4.75 6.73851 4.75159 5.71085 4.88976ZM2.75 12C2.75 11.146 2.75032 10.4027 2.76309 9.75H21.2369C21.2497 10.4027 21.25 11.146 21.25 12V14C21.25 15.9068 21.2484 17.2615 21.1102 18.2892C20.975 19.2952 20.7213 19.8749 20.2981 20.2981C19.8749 20.7213 19.2952 20.975 18.2892 21.1102C17.2615 21.2484 15.9068 21.25 14 21.25H10C8.09318 21.25 6.73851 21.2484 5.71085 21.1102C4.70476 20.975 4.12511 20.7213 3.7019 20.2981C3.27869 19.8749 3.02502 19.2952 2.88976 18.2892C2.75159 17.2615 2.75 15.9068 2.75 14V12ZM11.706 13.6683C11.8289 13.4478 11.9229 13.2804 11.9999 13.1519C12.0768 13.2804 12.1708 13.4478 12.2937 13.6683L12.403 13.8642L12.4281 13.9098C12.5165 14.0712 12.6524 14.319 12.8781 14.4903C13.1083 14.665 13.3854 14.7256 13.5604 14.7638L13.6091 14.7745L13.8212 14.8225C14.0949 14.8844 14.291 14.9297 14.4364 14.9695C14.3386 15.096 14.1997 15.2597 14.0032 15.4895L13.8586 15.6586L13.8251 15.6974C13.704 15.8372 13.5224 16.0468 13.4384 16.3169C13.3554 16.5839 13.3838 16.8593 13.4031 17.0463L13.4084 17.0985L13.4302 17.3241C13.4576 17.6068 13.4771 17.8152 13.4863 17.9747C13.3529 17.9186 13.1822 17.8408 12.955 17.7361L12.7564 17.6447L12.7108 17.6234L12.7108 17.6234C12.5493 17.5475 12.2894 17.4253 11.9999 17.4253C11.7103 17.4253 11.4504 17.5475 11.2889 17.6234L11.2434 17.6447L11.0448 17.7361C10.8175 17.8408 10.6469 17.9186 10.5135 17.9747C10.5226 17.8152 10.5421 17.6068 10.5695 17.3241L10.5914 17.0985L10.5966 17.0463C10.6159 16.8593 10.6444 16.5839 10.5613 16.3169C10.4773 16.0468 10.2957 15.8372 10.1746 15.6974L10.1412 15.6586L9.99657 15.4895C9.80002 15.2597 9.66117 15.096 9.56337 14.9695C9.7087 14.9297 9.90483 14.8844 10.1786 14.8225L10.3907 14.7745L10.4393 14.7638C10.6143 14.7256 10.8915 14.665 11.1217 14.4903C11.3473 14.319 11.4832 14.0712 11.5717 13.9098L11.5968 13.8642L11.706 13.6683ZM11.9999 11.417C11.4824 11.417 11.1566 11.7513 10.9699 11.995C10.7911 12.2285 10.61 12.5536 10.4199 12.8947L10.4199 12.8948L10.3958 12.9379L10.2866 13.1339C10.2558 13.1891 10.2326 13.2308 10.2121 13.2662L10.2054 13.2778L10.2021 13.2786C10.1641 13.2878 10.1196 13.2979 10.0597 13.3115L9.84753 13.3595L9.79871 13.3705C9.43138 13.4536 9.07519 13.5341 8.80349 13.6411C8.50563 13.7585 8.11864 13.9806 7.9695 14.4602C7.82291 14.9316 8.00629 15.3336 8.17523 15.602C8.33249 15.8518 8.57292 16.1328 8.82487 16.4274L8.85657 16.4644L9.00117 16.6335C9.04197 16.6812 9.07258 16.717 9.09843 16.7482L9.11501 16.7684L9.11256 16.8007C9.10916 16.8421 9.10452 16.8903 9.09836 16.9538L9.0765 17.1795L9.07183 17.2276C9.03356 17.6218 8.9974 17.9943 9.01059 18.2905C9.02438 18.5999 9.09817 19.0475 9.4981 19.3511C9.91028 19.664 10.3674 19.5983 10.6695 19.5118C10.9495 19.4315 11.2825 19.2781 11.6262 19.1198L11.6262 19.1198L11.6721 19.0986L11.8707 19.0072C11.9244 18.9825 11.9649 18.9638 11.9999 18.9484C12.0348 18.9638 12.0754 18.9825 12.129 19.0072L12.3276 19.0986L12.3735 19.1198L12.3735 19.1198C12.7173 19.2781 13.0502 19.4315 13.3303 19.5118C13.6324 19.5983 14.0895 19.664 14.5016 19.3511C14.9016 19.0475 14.9754 18.5999 14.9891 18.2905C15.0023 17.9943 14.9662 17.6218 14.9279 17.2276L14.9232 17.1795L14.9014 16.9538C14.8952 16.8903 14.8906 16.8421 14.8872 16.8007L14.8847 16.7684L14.9013 16.7482C14.9272 16.717 14.9578 16.6812 14.9986 16.6335L15.1432 16.4644L15.1749 16.4274C15.4268 16.1329 15.6672 15.8518 15.8245 15.602C15.9934 15.3336 16.1768 14.9316 16.0302 14.4602C15.8811 13.9806 15.4941 13.7585 15.1962 13.6411C14.9245 13.5341 14.5684 13.4536 14.201 13.3705L14.1522 13.3595L13.9401 13.3115C13.8801 13.2979 13.8356 13.2878 13.7977 13.2786L13.7944 13.2778L13.7876 13.2662C13.7672 13.2308 13.7439 13.1891 13.7131 13.1339L13.6039 12.9379L13.5798 12.8948C13.3898 12.5536 13.2086 12.2285 13.0298 11.995C12.8432 11.7513 12.5173 11.417 11.9999 11.417Z" fill="#61697F"/>
</svg>
