<svg width="24" height="24" viewBox="0 0 24 24" fill="none" xmlns="http://www.w3.org/2000/svg">
<path fill-rule="evenodd" clip-rule="evenodd" d="M7.5 5.625C7.5 5.00368 8.00368 4.5 8.625 4.5C9.24632 4.5 9.75 5.00368 9.75 5.625C9.75 6.24632 9.24632 6.75 8.625 6.75C8.00368 6.75 7.5 6.24632 7.5 5.625ZM8.625 3C7.17525 3 6 4.17525 6 5.625C6 7.07475 7.17525 8.25 8.625 8.25C10.0747 8.25 11.25 7.07475 11.25 5.625C11.25 4.17525 10.0747 3 8.625 3ZM4.125 9C3.50368 9 3 9.50368 3 10.125C3 10.7463 3.50368 11.25 4.125 11.25C4.74632 11.25 5.25 10.7463 5.25 10.125C5.25 9.50368 4.74632 9 4.125 9ZM1.5 10.125C1.5 8.67525 2.67525 7.5 4.125 7.5C5.57475 7.5 6.75 8.67525 6.75 10.125C6.75 11.5747 5.57475 12.75 4.125 12.75C2.67525 12.75 1.5 11.5747 1.5 10.125ZM19.875 9C19.2537 9 18.75 9.50368 18.75 10.125C18.75 10.7463 19.2537 11.25 19.875 11.25C20.4963 11.25 21 10.7463 21 10.125C21 9.50368 20.4963 9 19.875 9ZM17.25 10.125C17.25 8.67525 18.4253 7.5 19.875 7.5C21.3247 7.5 22.5 8.67525 22.5 10.125C22.5 11.5747 21.3247 12.75 19.875 12.75C18.4253 12.75 17.25 11.5747 17.25 10.125ZM15.375 4.5C14.7537 4.5 14.25 5.00368 14.25 5.625C14.25 6.24632 14.7537 6.75 15.375 6.75C15.9963 6.75 16.5 6.24632 16.5 5.625C16.5 5.00368 15.9963 4.5 15.375 4.5ZM12.75 5.625C12.75 4.17525 13.9253 3 15.375 3C16.8247 3 18 4.17525 18 5.625C18 7.07475 16.8247 8.25 15.375 8.25C13.9253 8.25 12.75 7.07475 12.75 5.625ZM12 9C11.1069 9 10.2379 9.28989 9.5236 9.82611C8.81314 10.3595 8.29396 11.1079 8.04312 11.9598L8.03906 11.9733C7.79408 12.8156 7.22685 13.5273 6.46053 13.9539C5.61541 14.4133 4.97902 15.1798 4.68299 16.0951C4.38652 17.0118 4.45414 18.0074 4.87185 18.8755C5.28956 19.7437 6.02531 20.4178 6.9266 20.7581C7.82648 21.098 8.82247 21.0791 9.70873 20.7054C11.1771 20.1044 12.8228 20.1044 14.2912 20.7053C15.1775 21.0794 16.1737 21.0985 17.0738 20.7588C17.9754 20.4185 18.7114 19.7443 19.1292 18.876C19.547 18.0076 19.6145 17.0118 19.3178 16.0949C19.0216 15.1795 18.3849 14.413 17.5394 13.9539C16.7732 13.5272 16.206 12.8156 15.961 11.9733L15.9569 11.9598C15.7061 11.1078 15.1869 10.3595 14.4765 9.82611C13.7622 9.28989 12.8932 9 12 9ZM7.18585 15.2669C8.29527 14.6507 9.11757 13.6229 9.47543 12.4057L9.4795 12.3922C9.63813 11.8464 9.96963 11.3669 10.4242 11.0257C10.8787 10.6845 11.4317 10.5 12 10.5C12.5684 10.5 13.1214 10.6845 13.5759 11.0257C14.0304 11.3669 14.3619 11.8464 14.5206 12.3922L14.5247 12.4058C14.8823 13.6223 15.7039 14.6496 16.8124 15.2659L16.8212 15.2708C17.3297 15.5461 17.7126 16.0067 17.8907 16.5568C18.0687 17.107 18.0282 17.7045 17.7775 18.2256C17.5268 18.7467 17.0851 19.1513 16.5441 19.3554C16.0031 19.5596 15.4043 19.5478 14.8718 19.3223L14.8718 19.3222L14.8639 19.319C13.0288 18.5665 10.9713 18.5665 9.13614 19.319L9.13613 19.319L9.1285 19.3222C8.59606 19.5474 7.99737 19.5591 7.45653 19.3549C6.91569 19.1506 6.47419 18.7461 6.22353 18.2251C5.97287 17.7042 5.93229 17.1068 6.1102 16.5567C6.2881 16.0066 6.67085 15.5461 7.1791 15.2706L7.17912 15.2707L7.18585 15.2669Z" fill="#61697F"/>
</svg>
