<svg width="24" height="24" viewBox="0 0 24 24" fill="none" xmlns="http://www.w3.org/2000/svg">
<path fill-rule="evenodd" clip-rule="evenodd" d="M6.17864 16.7608L14.4697 8.46979C14.7626 8.1769 15.2374 8.1769 15.5303 8.46979C15.8232 8.76269 15.8232 9.23756 15.5303 9.53045L7.23932 17.8215C10.4284 19.3802 13.4609 18.8867 15.7077 16.7949C18.1144 14.5542 19.7468 10.3578 19.5333 4.46675C13.6423 4.25326 9.44587 5.88569 7.20515 8.29238C5.11335 10.5391 4.6198 13.5717 6.17864 16.7608ZM5.06521 17.8743C2.9909 14.0344 3.44103 10.134 6.10731 7.27026C8.84473 4.33007 13.7889 2.61871 20.294 3.00137C20.6736 3.02369 20.9764 3.32649 20.9987 3.70603C21.3813 10.2111 19.67 15.1553 16.7298 17.8927C13.866 20.559 9.96571 21.0092 6.12589 18.9349L4.28033 20.7805C3.98744 21.0733 3.51256 21.0733 3.21967 20.7805C2.92678 20.4876 2.92678 20.0127 3.21967 19.7198L5.06521 17.8743Z" fill="#61697F"/>
</svg>
