<svg width="24" height="24" viewBox="0 0 24 24" fill="none" xmlns="http://www.w3.org/2000/svg">
<path d="M21.3 14.3101L17.75 12.7301V10.2801L18.7 10.6901C18.7952 10.7292 18.897 10.7496 19 10.7501C19.1734 10.7515 19.3419 10.6928 19.4769 10.5839C19.6118 10.4751 19.7049 10.3228 19.7403 10.1531C19.7757 9.98331 19.7511 9.80654 19.6708 9.65285C19.5906 9.49915 19.4595 9.37802 19.3 9.31008L17.3 8.46008L14.75 7.36008V5.21008L15.66 5.67008C15.7479 5.71473 15.8439 5.74161 15.9422 5.74919C16.0406 5.75677 16.1395 5.7449 16.2333 5.71426C16.3271 5.68361 16.4139 5.6348 16.4888 5.57059C16.5638 5.50639 16.6253 5.42806 16.67 5.34008C16.7146 5.25209 16.7415 5.15617 16.7491 5.0578C16.7566 4.95942 16.7448 4.86052 16.7141 4.76673C16.6835 4.67295 16.6347 4.58611 16.5705 4.51119C16.5063 4.43627 16.4279 4.37473 16.34 4.33008L13.82 3.07008C13.2544 2.78906 12.6315 2.64282 12 2.64282C11.3684 2.64282 10.7455 2.78906 10.18 3.07008L7.65995 4.33008C7.5722 4.3736 7.49395 4.43411 7.42976 4.50811C7.36557 4.5821 7.31671 4.6681 7.28601 4.76113C7.25532 4.85415 7.24339 4.95234 7.25094 5.05001C7.25848 5.14767 7.28534 5.24287 7.32995 5.33008C7.39143 5.45554 7.48673 5.56134 7.60511 5.63555C7.72349 5.70976 7.86024 5.74942 7.99995 5.75008C8.11764 5.74753 8.23348 5.72027 8.33995 5.67008L9.24995 5.21008V7.36008L6.70995 8.45008L4.70995 9.31008C4.52696 9.38832 4.38253 9.53605 4.30845 9.72077C4.23438 9.90549 4.23672 10.1121 4.31495 10.2951C4.39319 10.4781 4.54092 10.6225 4.72565 10.6966C4.91037 10.7707 5.11696 10.7683 5.29995 10.6901L6.29995 10.2801V12.7301L2.69995 14.3101C2.51696 14.3896 2.37306 14.5386 2.29992 14.7243C2.22678 14.91 2.23039 15.1171 2.30995 15.3001C2.38952 15.4831 2.53852 15.627 2.72418 15.7001C2.90984 15.7733 3.11696 15.7696 3.29995 15.6901L4.23995 15.2701V19.5001C4.23995 20.0968 4.47701 20.6691 4.89896 21.0911C5.32092 21.513 5.89322 21.7501 6.48995 21.7501H8.48995C9.08605 21.7474 9.65717 21.5103 10.08 21.0901C10.2888 20.8797 10.4538 20.6299 10.5653 20.3552C10.6769 20.0806 10.7329 19.7865 10.73 19.4901V18.0001C10.73 17.6659 10.8627 17.3454 11.099 17.1091C11.3353 16.8728 11.6558 16.7401 11.99 16.7401C12.3241 16.7401 12.6446 16.8728 12.8809 17.1091C13.1172 17.3454 13.25 17.6659 13.25 18.0001V19.5001C13.25 20.0968 13.487 20.6691 13.909 21.0911C14.3309 21.513 14.9032 21.7501 15.5 21.7501H17.5C18.0967 21.7501 18.669 21.513 19.0909 21.0911C19.5129 20.6691 19.75 20.0968 19.75 19.5001V15.2701L20.7 15.6901C20.7906 15.7295 20.8881 15.7506 20.9868 15.7524C21.0856 15.7541 21.1838 15.7363 21.2757 15.7001C21.3677 15.6639 21.4516 15.6099 21.5226 15.5413C21.5937 15.4727 21.6506 15.3907 21.69 15.3001C21.7294 15.2095 21.7505 15.112 21.7522 15.0132C21.754 14.9144 21.7362 14.8162 21.7 14.7243C21.6638 14.6324 21.6098 14.5485 21.5412 14.4774C21.4725 14.4063 21.3906 14.3495 21.3 14.3101ZM10.85 4.41008C11.2072 4.23219 11.6009 4.1396 12 4.1396C12.399 4.1396 12.7927 4.23219 13.15 4.41008H13.25V6.71008C12.4369 6.44982 11.563 6.44982 10.75 6.71008V4.46008L10.85 4.41008ZM7.74995 9.64008L11 8.25008C11.3158 8.11416 11.6561 8.04406 12 8.04406C12.3438 8.04406 12.6841 8.11416 13 8.25008L16.24 9.64008V12.0701L13.64 10.9101C13.1196 10.6826 12.5578 10.5652 11.99 10.5652C11.4221 10.5652 10.8603 10.6826 10.34 10.9101L7.73995 12.0701L7.74995 9.64008ZM18.25 19.5001C18.2474 19.6982 18.1675 19.8874 18.0274 20.0275C17.8873 20.1676 17.6981 20.2475 17.5 20.2501H15.5C15.3018 20.2475 15.1126 20.1676 14.9725 20.0275C14.8324 19.8874 14.7525 19.6982 14.75 19.5001V18.0001C14.75 17.2681 14.4592 16.5661 13.9416 16.0485C13.424 15.5309 12.722 15.2401 11.99 15.2401C11.258 15.2401 10.5559 15.5309 10.0383 16.0485C9.52074 16.5661 9.22995 17.2681 9.22995 18.0001V19.5001C9.22682 19.5945 9.20487 19.6874 9.16537 19.7733C9.12588 19.8591 9.06964 19.9362 8.99995 20.0001C8.93223 20.0694 8.85137 20.1246 8.76209 20.1624C8.67281 20.2002 8.5769 20.2198 8.47995 20.2201H6.47995C6.28185 20.2175 6.09258 20.1376 5.95249 19.9975C5.81239 19.8575 5.73254 19.6682 5.72995 19.4701V14.6001L11 12.2801C11.328 12.1369 11.682 12.063 12.04 12.063C12.3979 12.063 12.7519 12.1369 13.08 12.2801L18.29 14.6001L18.25 19.5001Z" fill="#61697F"/>
</svg>
