<svg width="40" height="40" viewBox="0 0 40 40" fill="none" xmlns="http://www.w3.org/2000/svg">
<path d="M16.3586 19.9997C16.3586 17.9892 17.989 16.3589 20.0008 16.3589C22.0125 16.3589 23.6438 17.9892 23.6438 19.9997C23.6438 22.0102 22.0125 23.6405 20.0008 23.6405C17.989 23.6405 16.3586 22.0102 16.3586 19.9997ZM14.3893 19.9997C14.3893 23.0971 16.9015 25.6078 20.0008 25.6078C23.1 25.6078 25.6122 23.0971 25.6122 19.9997C25.6122 16.9023 23.1 14.3916 20.0008 14.3916C16.9015 14.3916 14.3893 16.9023 14.3893 19.9997ZM24.523 14.1692C24.5229 14.4285 24.5997 14.6819 24.7437 14.8975C24.8877 15.113 25.0925 15.2811 25.3321 15.3804C25.5716 15.4797 25.8353 15.5057 26.0897 15.4553C26.3441 15.4048 26.5778 15.2801 26.7613 15.0969C26.9448 14.9136 27.0698 14.6802 27.1205 14.426C27.1712 14.1718 27.1453 13.9082 27.0461 13.6687C26.947 13.4292 26.779 13.2244 26.5634 13.0803C26.3478 12.9362 26.0943 12.8593 25.8349 12.8592H25.8344C25.4867 12.8593 25.1533 12.9974 24.9075 13.243C24.6616 13.4887 24.5233 13.8218 24.523 14.1692ZM15.5858 28.8896C14.5204 28.8411 13.9412 28.6638 13.5564 28.5139C13.0462 28.3154 12.6822 28.079 12.2994 27.697C11.9167 27.315 11.6797 26.9515 11.482 26.4416C11.332 26.0572 11.1545 25.4782 11.1061 24.4134C11.0531 23.2622 11.0425 22.9164 11.0425 19.9998C11.0425 17.0832 11.0539 16.7383 11.1061 15.5862C11.1546 14.5214 11.3334 13.9436 11.482 13.558C11.6806 13.0481 11.9172 12.6843 12.2994 12.3017C12.6816 11.9192 13.0453 11.6824 13.5564 11.4848C13.9411 11.3349 14.5204 11.1575 15.5858 11.1091C16.7377 11.0562 17.0837 11.0456 20.0008 11.0456C22.9178 11.0456 23.2642 11.057 24.417 11.1091C25.4825 11.1576 26.0606 11.3363 26.4464 11.4848C26.9567 11.6824 27.3207 11.9197 27.7034 12.3017C28.0862 12.6837 28.3222 13.0481 28.5209 13.558C28.6709 13.9424 28.8484 14.5214 28.8968 15.5862C28.9498 16.7383 28.9604 17.0832 28.9604 19.9998C28.9604 22.9164 28.9498 23.2612 28.8968 24.4134C28.8483 25.4782 28.6699 26.057 28.5209 26.4416C28.3222 26.9515 28.0857 27.3153 27.7034 27.697C27.3212 28.0786 26.9567 28.3154 26.4464 28.5139C26.0618 28.6638 25.4825 28.8412 24.417 28.8896C23.2651 28.9426 22.9191 28.9531 20.0008 28.9531C17.0824 28.9531 16.7374 28.9426 15.5858 28.8896ZM15.4953 9.14427C14.332 9.19721 13.537 9.38157 12.8428 9.65155C12.1238 9.93036 11.5151 10.3044 10.9069 10.9113C10.2987 11.5182 9.92538 12.1274 9.6464 12.846C9.37626 13.5402 9.19179 14.3343 9.13881 15.497C9.08496 16.6615 9.07263 17.0338 9.07263 19.9997C9.07263 22.9657 9.08496 23.338 9.13881 24.5025C9.19179 25.6652 9.37626 26.4592 9.6464 27.1534C9.92538 27.8715 10.2988 28.4815 10.9069 29.0881C11.515 29.6948 12.1238 30.0683 12.8428 30.3479C13.5383 30.6178 14.332 30.8022 15.4953 30.8552C16.6611 30.9081 17.033 30.9213 20.0008 30.9213C22.9685 30.9213 23.341 30.909 24.5062 30.8552C25.6697 30.8022 26.4641 30.6178 27.1588 30.3479C27.8773 30.0683 28.4864 29.695 29.0946 29.0881C29.7029 28.4812 30.0754 27.8715 30.3551 27.1534C30.6253 26.4592 30.8106 25.6651 30.8627 24.5025C30.9157 23.3371 30.928 22.9657 30.928 19.9997C30.928 17.0338 30.9157 16.6615 30.8627 15.497C30.8097 14.3342 30.6253 13.5398 30.3551 12.846C30.0754 12.1279 29.7019 11.5191 29.0946 10.9113C28.4874 10.3034 27.8773 9.93036 27.1597 9.65155C26.4641 9.38157 25.6696 9.19634 24.5071 9.14427C23.3419 9.09132 22.9694 9.07812 20.0016 9.07812C17.0339 9.07812 16.6611 9.09044 15.4953 9.14427Z" fill="url(#paint0_radial_237_5144)"/>
<path d="M16.3586 19.9997C16.3586 17.9892 17.989 16.3589 20.0008 16.3589C22.0125 16.3589 23.6438 17.9892 23.6438 19.9997C23.6438 22.0102 22.0125 23.6405 20.0008 23.6405C17.989 23.6405 16.3586 22.0102 16.3586 19.9997ZM14.3893 19.9997C14.3893 23.0971 16.9015 25.6078 20.0008 25.6078C23.1 25.6078 25.6122 23.0971 25.6122 19.9997C25.6122 16.9023 23.1 14.3916 20.0008 14.3916C16.9015 14.3916 14.3893 16.9023 14.3893 19.9997ZM24.523 14.1692C24.5229 14.4285 24.5997 14.6819 24.7437 14.8975C24.8877 15.113 25.0925 15.2811 25.3321 15.3804C25.5716 15.4797 25.8353 15.5057 26.0897 15.4553C26.3441 15.4048 26.5778 15.2801 26.7613 15.0969C26.9448 14.9136 27.0698 14.6802 27.1205 14.426C27.1712 14.1718 27.1453 13.9082 27.0461 13.6687C26.947 13.4292 26.779 13.2244 26.5634 13.0803C26.3478 12.9362 26.0943 12.8593 25.8349 12.8592H25.8344C25.4867 12.8593 25.1533 12.9974 24.9075 13.243C24.6616 13.4887 24.5233 13.8218 24.523 14.1692ZM15.5858 28.8896C14.5204 28.8411 13.9412 28.6638 13.5564 28.5139C13.0462 28.3154 12.6822 28.079 12.2994 27.697C11.9167 27.315 11.6797 26.9515 11.482 26.4416C11.332 26.0572 11.1545 25.4782 11.1061 24.4134C11.0531 23.2622 11.0425 22.9164 11.0425 19.9998C11.0425 17.0832 11.0539 16.7383 11.1061 15.5862C11.1546 14.5214 11.3334 13.9436 11.482 13.558C11.6806 13.0481 11.9172 12.6843 12.2994 12.3017C12.6816 11.9192 13.0453 11.6824 13.5564 11.4848C13.9411 11.3349 14.5204 11.1575 15.5858 11.1091C16.7377 11.0562 17.0837 11.0456 20.0008 11.0456C22.9178 11.0456 23.2642 11.057 24.417 11.1091C25.4825 11.1576 26.0606 11.3363 26.4464 11.4848C26.9567 11.6824 27.3207 11.9197 27.7034 12.3017C28.0862 12.6837 28.3222 13.0481 28.5209 13.558C28.6709 13.9424 28.8484 14.5214 28.8968 15.5862C28.9498 16.7383 28.9604 17.0832 28.9604 19.9998C28.9604 22.9164 28.9498 23.2612 28.8968 24.4134C28.8483 25.4782 28.6699 26.057 28.5209 26.4416C28.3222 26.9515 28.0857 27.3153 27.7034 27.697C27.3212 28.0786 26.9567 28.3154 26.4464 28.5139C26.0618 28.6638 25.4825 28.8412 24.417 28.8896C23.2651 28.9426 22.9191 28.9531 20.0008 28.9531C17.0824 28.9531 16.7374 28.9426 15.5858 28.8896ZM15.4953 9.14427C14.332 9.19721 13.537 9.38157 12.8428 9.65155C12.1238 9.93036 11.5151 10.3044 10.9069 10.9113C10.2987 11.5182 9.92538 12.1274 9.6464 12.846C9.37626 13.5402 9.19179 14.3343 9.13881 15.497C9.08496 16.6615 9.07263 17.0338 9.07263 19.9997C9.07263 22.9657 9.08496 23.338 9.13881 24.5025C9.19179 25.6652 9.37626 26.4592 9.6464 27.1534C9.92538 27.8715 10.2988 28.4815 10.9069 29.0881C11.515 29.6948 12.1238 30.0683 12.8428 30.3479C13.5383 30.6178 14.332 30.8022 15.4953 30.8552C16.6611 30.9081 17.033 30.9213 20.0008 30.9213C22.9685 30.9213 23.341 30.909 24.5062 30.8552C25.6697 30.8022 26.4641 30.6178 27.1588 30.3479C27.8773 30.0683 28.4864 29.695 29.0946 29.0881C29.7029 28.4812 30.0754 27.8715 30.3551 27.1534C30.6253 26.4592 30.8106 25.6651 30.8627 24.5025C30.9157 23.3371 30.928 22.9657 30.928 19.9997C30.928 17.0338 30.9157 16.6615 30.8627 15.497C30.8097 14.3342 30.6253 13.5398 30.3551 12.846C30.0754 12.1279 29.7019 11.5191 29.0946 10.9113C28.4874 10.3034 27.8773 9.93036 27.1597 9.65155C26.4641 9.38157 25.6696 9.19634 24.5071 9.14427C23.3419 9.09132 22.9694 9.07812 20.0016 9.07812C17.0339 9.07812 16.6611 9.09044 15.4953 9.14427Z" fill="url(#paint1_radial_237_5144)"/>
<defs>
<radialGradient id="paint0_radial_237_5144" cx="0" cy="0" r="1" gradientUnits="userSpaceOnUse" gradientTransform="translate(11.9764 31.0245) scale(28.5315 28.5144)">
<stop offset="0.09" stop-color="#FA8F21"/>
<stop offset="0.78" stop-color="#D82D7E"/>
</radialGradient>
<radialGradient id="paint1_radial_237_5144" cx="0" cy="0" r="1" gradientUnits="userSpaceOnUse" gradientTransform="translate(22.3275 32.0031) scale(22.4868 22.4733)">
<stop offset="0.64" stop-color="#8C3AAA" stop-opacity="0"/>
<stop offset="1" stop-color="#8C3AAA"/>
</radialGradient>
</defs>
</svg>
