<svg width="40" height="40" viewBox="0 0 40 40" fill="none" xmlns="http://www.w3.org/2000/svg">
<path d="M9.17407 10.7399C9.17407 9.87577 9.89755 9.17432 10.7894 9.17432H29.415C30.3072 9.17432 31.0303 9.87577 31.0303 10.7399V29.4652C31.0303 30.3297 30.3072 31.0306 29.415 31.0306H10.7894C9.89763 31.0306 9.17407 30.3297 9.17407 29.4655V10.7397V10.7399Z" fill="#006699"/>
<path d="M15.8158 27.4654V17.6256H12.5452V27.4654H15.8161H15.8158ZM14.1812 16.2824C15.3215 16.2824 16.0314 15.5268 16.0314 14.5826C16.01 13.6168 15.3215 12.8823 14.2029 12.8823C13.0835 12.8823 12.3524 13.6168 12.3524 14.5825C12.3524 15.5268 13.0621 16.2823 14.1597 16.2823H14.1809L14.1812 16.2824ZM17.6261 27.4654H20.8964V21.971C20.8964 21.6773 20.9178 21.3829 21.0042 21.1731C21.2405 20.5853 21.7786 19.9768 22.6823 19.9768C23.8655 19.9768 24.339 20.8791 24.339 22.202V27.4654H27.6093V21.8236C27.6093 18.8014 25.996 17.395 23.8443 17.395C22.0802 17.395 21.3054 18.381 20.8749 19.0525H20.8967V17.626H17.6263C17.669 18.5491 17.626 27.4658 17.626 27.4658L17.6261 27.4654Z" fill="white"/>
</svg>
