<svg width="24" height="24" viewBox="0 0 24 24" fill="none" xmlns="http://www.w3.org/2000/svg">
<path fill-rule="evenodd" clip-rule="evenodd" d="M5.0625 6C5.0625 6.51777 4.64277 6.9375 4.125 6.9375C3.60723 6.9375 3.1875 6.51777 3.1875 6C3.1875 5.48223 3.60723 5.0625 4.125 5.0625C4.64277 5.0625 5.0625 5.48223 5.0625 6ZM8.25 5.25C7.83579 5.25 7.5 5.58579 7.5 6C7.5 6.41421 7.83579 6.75 8.25 6.75H20.25C20.6642 6.75 21 6.41421 21 6C21 5.58579 20.6642 5.25 20.25 5.25H8.25ZM8.25049 11.25C7.83627 11.25 7.50049 11.5858 7.50049 12C7.50049 12.4142 7.83627 12.75 8.25049 12.75H20.2499C20.6641 12.75 20.9999 12.4142 20.9999 12C20.9999 11.5858 20.6641 11.25 20.2499 11.25H8.25049ZM7.50049 18C7.50049 17.5858 7.83627 17.25 8.25049 17.25H20.2499C20.6641 17.25 20.9999 17.5858 20.9999 18C20.9999 18.4142 20.6641 18.75 20.2499 18.75H8.25049C7.83627 18.75 7.50049 18.4142 7.50049 18ZM4.125 18.9375C4.64277 18.9375 5.0625 18.5178 5.0625 18C5.0625 17.4822 4.64277 17.0625 4.125 17.0625C3.60723 17.0625 3.1875 17.4822 3.1875 18C3.1875 18.5178 3.60723 18.9375 4.125 18.9375ZM5.0625 12C5.0625 12.5178 4.64277 12.9375 4.125 12.9375C3.60723 12.9375 3.1875 12.5178 3.1875 12C3.1875 11.4822 3.60723 11.0625 4.125 11.0625C4.64277 11.0625 5.0625 11.4822 5.0625 12Z" fill="#61697F"/>
</svg>
