<svg width="40" height="40" viewBox="0 0 40 40" fill="none" xmlns="http://www.w3.org/2000/svg">
<path d="M10.0001 29.2002L11.4351 23.8694C10.2778 21.7928 9.91015 19.3696 10.3995 17.0444C10.8889 14.7193 12.2025 12.6481 14.0993 11.211C15.9961 9.77393 18.3488 9.06732 20.7257 9.22084C23.1027 9.37436 25.3444 10.3777 27.0395 12.0468C28.7347 13.7159 29.7695 15.9387 29.9542 18.3074C30.1388 20.6762 29.4609 23.0318 28.0448 24.9422C26.6288 26.8526 24.5695 28.1896 22.2449 28.7078C19.9203 29.2259 17.4864 28.8906 15.3897 27.7633L10.0001 29.2002ZM15.6495 25.7684L15.9829 25.9657C17.5015 26.8635 19.2753 27.2351 21.0278 27.0224C22.7803 26.8098 24.4131 26.0248 25.6716 24.79C26.9302 23.5551 27.7438 21.9396 27.9858 20.1953C28.2278 18.451 27.8845 16.6758 27.0094 15.1465C26.1344 13.6171 24.7767 12.4194 23.1479 11.7401C21.5192 11.0607 19.7109 10.9379 18.0048 11.3906C16.2988 11.8434 14.7908 12.8464 13.7159 14.2433C12.641 15.6402 12.0595 17.3525 12.0622 19.1134C12.0607 20.5735 12.4656 22.0054 13.2316 23.2496L13.4406 23.5933L12.6384 26.5686L15.6495 25.7684Z" fill="#00D95F"/>
<path fill-rule="evenodd" clip-rule="evenodd" d="M23.7393 20.4823C23.5439 20.3251 23.3151 20.2144 23.0703 20.1588C22.8256 20.1031 22.5713 20.1039 22.3269 20.1611C21.9597 20.3132 21.7224 20.888 21.4851 21.1754C21.4351 21.2443 21.3616 21.2926 21.2784 21.3113C21.1952 21.3299 21.108 21.3177 21.0332 21.2768C19.6888 20.7516 18.5619 19.7884 17.8356 18.5438C17.7737 18.4661 17.7443 18.3675 17.7538 18.2687C17.7633 18.1699 17.8109 18.0786 17.8865 18.0141C18.1511 17.7528 18.3454 17.4291 18.4514 17.0731C18.4749 16.6803 18.3847 16.2891 18.1915 15.946C18.0422 15.4651 17.7579 15.0369 17.3724 14.712C17.1735 14.6228 16.953 14.5928 16.7375 14.6258C16.522 14.6588 16.3206 14.7533 16.1577 14.8979C15.875 15.1413 15.6505 15.4448 15.5009 15.7861C15.3513 16.1274 15.2804 16.4979 15.2934 16.8702C15.2942 17.0793 15.3208 17.2874 15.3725 17.49C15.5037 17.9769 15.7054 18.442 15.9713 18.8706C16.1632 19.199 16.3725 19.5169 16.5984 19.823C17.3326 20.8282 18.2554 21.6818 19.3158 22.3362C19.8479 22.6687 20.4165 22.9391 21.0106 23.142C21.6277 23.421 22.309 23.5281 22.9822 23.4519C23.3658 23.394 23.7292 23.243 24.0405 23.0121C24.3518 22.7811 24.6015 22.4774 24.7675 22.1277C24.865 21.9164 24.8946 21.6802 24.8522 21.4515C24.7505 20.9838 24.1234 20.7077 23.7393 20.4823Z" fill="#00D95F"/>
</svg>
