<svg width="40" height="40" viewBox="0 0 40 40" fill="none" xmlns="http://www.w3.org/2000/svg">
<path d="M31.1253 14.4982C30.8641 13.5164 30.0915 12.7418 29.1086 12.4764C27.3313 12 20.2004 12 20.2004 12C20.2004 12 13.0731 12 11.2922 12.4764C10.3129 12.7382 9.54035 13.5127 9.27557 14.4982C8.80042 16.28 8.80042 20 8.80042 20C8.80042 20 8.80042 23.72 9.27557 25.5018C9.53672 26.4836 10.3093 27.2582 11.2922 27.5236C13.0731 28 20.2004 28 20.2004 28C20.2004 28 27.3313 28 29.1086 27.5236C30.0879 27.2618 30.8605 26.4873 31.1253 25.5018C31.6004 23.72 31.6004 20 31.6004 20C31.6004 20 31.6004 16.28 31.1253 14.4982Z" fill="#FF3000"/>
<path d="M17.9226 23.4291L23.8457 20L17.9226 16.5709V23.4291Z" fill="white"/>
</svg>
